<svg width="4691" height="1055" viewBox="0 0 4691 1055" fill="none" xmlns="http://www.w3.org/2000/svg">
<path d="M18.3949 409L21.0227 393.659C21.7803 389.303 23.3665 384.852 25.7812 380.307C28.2434 375.761 31.2027 371.476 34.6591 367.452C38.1629 363.427 41.8087 360.065 45.5966 357.366L57.5284 365.25C54.1667 369.417 51.2547 373.773 48.7926 378.318C46.3305 382.864 44.6496 387.93 43.75 393.517L41.1222 409H18.3949ZM54.2614 409L56.8892 393.659C57.6468 389.303 59.233 384.852 61.6477 380.307C64.1099 375.761 67.0691 371.476 70.5256 367.452C74.0294 363.427 77.6752 360.065 81.4631 357.366L93.3949 365.25C90.0331 369.417 87.1212 373.773 84.6591 378.318C82.197 382.864 80.5161 387.93 79.6165 393.517L76.9886 409H54.2614ZM102.273 388.901L106.534 363.545H225.994L221.733 388.901H177.202L157.315 509H126.918L146.804 388.901H102.273ZM261.861 445.932L251.349 509H221.165L245.312 363.545H274.645L265.554 419.156H266.761C270.265 412.717 275.071 407.674 281.179 404.028C287.287 400.335 294.508 398.489 302.841 398.489C310.417 398.489 316.738 400.146 321.804 403.46C326.918 406.727 330.54 411.438 332.67 417.594C334.801 423.702 335.156 431.017 333.736 439.54L322.088 509H291.903L302.557 444.938C303.646 438.214 302.77 432.982 299.929 429.241C297.135 425.501 292.685 423.631 286.577 423.631C282.457 423.631 278.67 424.507 275.213 426.259C271.757 428.01 268.845 430.567 266.477 433.929C264.157 437.243 262.618 441.244 261.861 445.932ZM345.756 509L363.938 399.909H394.194L376.012 509H345.756ZM382.191 385.705C377.693 385.705 373.976 384.213 371.04 381.23C368.152 378.2 366.969 374.601 367.489 370.435C368.01 366.173 370.046 362.575 373.597 359.639C377.148 356.656 381.173 355.165 385.671 355.165C390.169 355.165 393.839 356.656 396.68 359.639C399.521 362.575 400.704 366.173 400.231 370.435C399.757 374.601 397.745 378.2 394.194 381.23C390.69 384.213 386.689 385.705 382.191 385.705ZM503.871 431.017L476.385 432.722C476.243 430.307 475.58 428.152 474.396 426.259C473.26 424.317 471.579 422.778 469.354 421.642C467.176 420.506 464.429 419.938 461.115 419.938C456.143 419.938 451.716 421.074 447.834 423.347C443.951 425.619 441.75 428.531 441.229 432.082C440.803 434.355 441.394 436.273 443.004 437.835C444.614 439.398 447.857 440.723 452.734 441.812L471.911 445.79C482.138 447.968 489.524 451.59 494.07 456.656C498.662 461.723 500.296 468.351 498.97 476.543C497.786 483.503 494.732 489.587 489.808 494.795C484.884 499.956 478.634 503.981 471.058 506.869C463.482 509.71 455.078 511.131 445.845 511.131C431.025 511.131 419.756 508.1 412.038 502.04C404.321 495.979 400.604 487.764 400.888 477.395L430.433 475.832C430.67 480.283 432.232 483.645 435.121 485.918C438.009 488.143 441.963 489.279 446.982 489.327C452.616 489.421 457.398 488.261 461.328 485.847C465.305 483.384 467.554 480.402 468.075 476.898C468.454 474.436 467.744 472.447 465.945 470.932C464.193 469.417 460.973 468.162 456.286 467.168L438.104 463.403C427.782 461.273 420.372 457.461 415.874 451.969C411.375 446.476 409.837 439.492 411.257 431.017C412.393 424.246 415.211 418.446 419.709 413.616C424.254 408.74 430.102 404.999 437.251 402.395C444.448 399.791 452.569 398.489 461.612 398.489C475.769 398.489 486.423 401.401 493.572 407.224C500.769 413.048 504.202 420.979 503.871 431.017ZM558.842 509L577.024 399.909H607.28L589.098 509H558.842ZM595.277 385.705C590.779 385.705 587.062 384.213 584.126 381.23C581.238 378.2 580.054 374.601 580.575 370.435C581.096 366.173 583.132 362.575 586.683 359.639C590.234 356.656 594.259 355.165 598.757 355.165C603.255 355.165 606.925 356.656 609.766 359.639C612.607 362.575 613.79 366.173 613.317 370.435C612.843 374.601 610.831 378.2 607.28 381.23C603.776 384.213 599.775 385.705 595.277 385.705ZM716.957 431.017L689.471 432.722C689.329 430.307 688.666 428.152 687.482 426.259C686.346 424.317 684.665 422.778 682.44 421.642C680.262 420.506 677.515 419.938 674.201 419.938C669.229 419.938 664.802 421.074 660.92 423.347C657.037 425.619 654.835 428.531 654.315 432.082C653.888 434.355 654.48 436.273 656.09 437.835C657.7 439.398 660.943 440.723 665.82 441.812L684.996 445.79C695.224 447.968 702.61 451.59 707.156 456.656C711.748 461.723 713.382 468.351 712.056 476.543C710.872 483.503 707.818 489.587 702.894 494.795C697.97 499.956 691.72 503.981 684.144 506.869C676.568 509.71 668.164 511.131 658.931 511.131C644.111 511.131 632.842 508.1 625.124 502.04C617.406 495.979 613.69 487.764 613.974 477.395L643.519 475.832C643.756 480.283 645.318 483.645 648.207 485.918C651.095 488.143 655.049 489.279 660.067 489.327C665.702 489.421 670.484 488.261 674.414 485.847C678.391 483.384 680.64 480.402 681.161 476.898C681.54 474.436 680.83 472.447 679.031 470.932C677.279 469.417 674.059 468.162 669.371 467.168L651.19 463.403C640.868 461.273 633.458 457.461 628.96 451.969C624.461 446.476 622.923 439.492 624.343 431.017C625.479 424.246 628.297 418.446 632.795 413.616C637.34 408.74 643.188 404.999 650.337 402.395C657.534 399.791 665.655 398.489 674.698 398.489C688.855 398.489 699.509 401.401 706.658 407.224C713.855 413.048 717.288 420.979 716.957 431.017ZM848.136 399.909L844.371 422.636H778.604L782.44 399.909H848.136ZM801.616 373.773H831.871L814.968 475.477C814.495 478.271 814.566 480.449 815.181 482.011C815.797 483.527 816.815 484.592 818.235 485.207C819.703 485.823 821.455 486.131 823.491 486.131C824.911 486.131 826.355 486.012 827.823 485.776C829.291 485.491 830.404 485.278 831.161 485.136L832.298 507.651C830.593 508.171 828.297 508.74 825.408 509.355C822.567 509.971 819.206 510.349 815.323 510.491C807.937 510.776 801.687 509.805 796.573 507.58C791.46 505.307 787.79 501.827 785.565 497.139C783.339 492.452 782.866 486.557 784.144 479.455L801.616 373.773ZM892.915 445.932L882.404 509H852.219L876.367 363.545H905.7L896.609 419.156H897.816C901.32 412.717 906.126 407.674 912.234 404.028C918.342 400.335 925.562 398.489 933.896 398.489C941.471 398.489 947.792 400.146 952.859 403.46C957.972 406.727 961.594 411.438 963.725 417.594C965.856 423.702 966.211 431.017 964.79 439.54L953.143 509H922.958L933.612 444.938C934.701 438.214 933.825 432.982 930.984 429.241C928.19 425.501 923.739 423.631 917.631 423.631C913.512 423.631 909.724 424.507 906.268 426.259C902.811 428.01 899.899 430.567 897.532 433.929C895.212 437.243 893.673 441.244 892.915 445.932ZM1026.24 511.131C1015.07 511.131 1005.81 508.858 998.473 504.312C991.134 499.72 985.973 493.233 982.99 484.852C980.054 476.424 979.557 466.457 981.499 454.952C983.393 443.73 987.204 433.882 992.933 425.406C998.71 416.931 1005.95 410.326 1014.67 405.591C1023.38 400.856 1033.08 398.489 1043.79 398.489C1050.98 398.489 1057.49 399.649 1063.32 401.969C1069.19 404.241 1074.06 407.698 1077.95 412.338C1081.83 416.931 1084.48 422.684 1085.9 429.597C1087.37 436.509 1087.35 444.606 1085.83 453.886L1084.48 462.196H992.436L995.348 443.446H1058.98C1059.69 439.09 1059.41 435.231 1058.13 431.869C1056.85 428.508 1054.72 425.88 1051.74 423.986C1048.76 422.045 1045.09 421.074 1040.73 421.074C1036.28 421.074 1032.11 422.163 1028.23 424.341C1024.35 426.519 1021.08 429.384 1018.43 432.935C1015.83 436.438 1014.15 440.25 1013.39 444.369L1010.05 462.977C1009.1 468.706 1009.29 473.465 1010.62 477.253C1011.99 481.041 1014.36 483.882 1017.72 485.776C1021.08 487.622 1025.34 488.545 1030.5 488.545C1033.87 488.545 1037.01 488.072 1039.95 487.125C1042.93 486.178 1045.58 484.781 1047.9 482.935C1050.22 481.041 1052.12 478.697 1053.59 475.903L1081.21 477.75C1078.66 484.473 1074.78 490.345 1069.57 495.364C1064.36 500.335 1058.08 504.218 1050.75 507.011C1043.45 509.758 1035.29 511.131 1026.24 511.131ZM1229.97 363.545L1205.82 509H1175.07L1194.39 392.736H1193.54L1156.75 413.616L1161.29 386.344L1201.07 363.545H1229.97ZM1344.3 431.017L1316.81 432.722C1316.67 430.307 1316.01 428.152 1314.83 426.259C1313.69 424.317 1312.01 422.778 1309.78 421.642C1307.61 420.506 1304.86 419.938 1301.54 419.938C1296.57 419.938 1292.15 421.074 1288.26 423.347C1284.38 425.619 1282.18 428.531 1281.66 432.082C1281.23 434.355 1281.82 436.273 1283.43 437.835C1285.04 439.398 1288.29 440.723 1293.16 441.812L1312.34 445.79C1322.57 447.968 1329.95 451.59 1334.5 456.656C1339.09 461.723 1340.73 468.351 1339.4 476.543C1338.22 483.503 1335.16 489.587 1330.24 494.795C1325.31 499.956 1319.06 503.981 1311.49 506.869C1303.91 509.71 1295.51 511.131 1286.27 511.131C1271.45 511.131 1260.19 508.1 1252.47 502.04C1244.75 495.979 1241.03 487.764 1241.32 477.395L1270.86 475.832C1271.1 480.283 1272.66 483.645 1275.55 485.918C1278.44 488.143 1282.39 489.279 1287.41 489.327C1293.05 489.421 1297.83 488.261 1301.76 485.847C1305.74 483.384 1307.98 480.402 1308.5 476.898C1308.88 474.436 1308.17 472.447 1306.37 470.932C1304.62 469.417 1301.4 468.162 1296.72 467.168L1278.53 463.403C1268.21 461.273 1260.8 457.461 1256.3 451.969C1251.81 446.476 1250.27 439.492 1251.69 431.017C1252.82 424.246 1255.64 418.446 1260.14 413.616C1264.68 408.74 1270.53 404.999 1277.68 402.395C1284.88 399.791 1293 398.489 1302.04 398.489C1316.2 398.489 1326.85 401.401 1334 407.224C1341.2 413.048 1344.63 420.979 1344.3 431.017ZM1429.19 399.909L1425.43 422.636H1359.66L1363.49 399.909H1429.19ZM1382.67 373.773H1412.93L1396.02 475.477C1395.55 478.271 1395.62 480.449 1396.24 482.011C1396.85 483.527 1397.87 484.592 1399.29 485.207C1400.76 485.823 1402.51 486.131 1404.55 486.131C1405.97 486.131 1407.41 486.012 1408.88 485.776C1410.35 485.491 1411.46 485.278 1412.22 485.136L1413.35 507.651C1411.65 508.171 1409.35 508.74 1406.46 509.355C1403.62 509.971 1400.26 510.349 1396.38 510.491C1388.99 510.776 1382.74 509.805 1377.63 507.58C1372.51 505.307 1368.84 501.827 1366.62 497.139C1364.39 492.452 1363.92 486.557 1365.2 479.455L1382.67 373.773ZM1580.63 431.017L1553.14 432.722C1553 430.307 1552.34 428.152 1551.15 426.259C1550.02 424.317 1548.34 422.778 1546.11 421.642C1543.93 420.506 1541.19 419.938 1537.87 419.938C1532.9 419.938 1528.47 421.074 1524.59 423.347C1520.71 425.619 1518.51 428.531 1517.99 432.082C1517.56 434.355 1518.15 436.273 1519.76 437.835C1521.37 439.398 1524.62 440.723 1529.49 441.812L1548.67 445.79C1558.9 447.968 1566.28 451.59 1570.83 456.656C1575.42 461.723 1577.05 468.351 1575.73 476.543C1574.54 483.503 1571.49 489.587 1566.57 494.795C1561.64 499.956 1555.39 503.981 1547.82 506.869C1540.24 509.71 1531.84 511.131 1522.6 511.131C1507.78 511.131 1496.51 508.1 1488.8 502.04C1481.08 495.979 1477.36 487.764 1477.65 477.395L1507.19 475.832C1507.43 480.283 1508.99 483.645 1511.88 485.918C1514.77 488.143 1518.72 489.279 1523.74 489.327C1529.37 489.421 1534.16 488.261 1538.09 485.847C1542.06 483.384 1544.31 480.402 1544.83 476.898C1545.21 474.436 1544.5 472.447 1542.7 470.932C1540.95 469.417 1537.73 468.162 1533.04 467.168L1514.86 463.403C1504.54 461.273 1497.13 457.461 1492.63 451.969C1488.13 446.476 1486.59 439.492 1488.01 431.017C1489.15 424.246 1491.97 418.446 1496.47 413.616C1501.01 408.74 1506.86 404.999 1514.01 402.395C1521.21 399.791 1529.33 398.489 1538.37 398.489C1552.53 398.489 1563.18 401.401 1570.33 407.224C1577.53 413.048 1580.96 420.979 1580.63 431.017ZM1665.52 399.909L1661.75 422.636H1595.99L1599.82 399.909H1665.52ZM1619 373.773H1649.25L1632.35 475.477C1631.88 478.271 1631.95 480.449 1632.56 482.011C1633.18 483.527 1634.2 484.592 1635.62 485.207C1637.09 485.823 1638.84 486.131 1640.87 486.131C1642.29 486.131 1643.74 486.012 1645.21 485.776C1646.67 485.491 1647.79 485.278 1648.54 485.136L1649.68 507.651C1647.98 508.171 1645.68 508.74 1642.79 509.355C1639.95 509.971 1636.59 510.349 1632.71 510.491C1625.32 510.776 1619.07 509.805 1613.96 507.58C1608.84 505.307 1605.17 501.827 1602.95 497.139C1600.72 492.452 1600.25 486.557 1601.53 479.455L1619 373.773ZM1667.05 509L1685.23 399.909H1714.56L1711.36 418.943H1712.5C1715.62 412.172 1719.82 407.059 1725.07 403.602C1730.37 400.098 1736.08 398.347 1742.19 398.347C1743.7 398.347 1745.29 398.441 1746.95 398.631C1748.65 398.773 1750.17 399.009 1751.49 399.341L1746.95 426.259C1745.62 425.785 1743.73 425.406 1741.26 425.122C1738.85 424.791 1736.55 424.625 1734.38 424.625C1729.97 424.625 1725.88 425.596 1722.09 427.537C1718.3 429.431 1715.1 432.082 1712.5 435.491C1709.94 438.901 1708.26 442.83 1707.46 447.281L1697.3 509H1667.05ZM1748.88 509L1767.06 399.909H1797.32L1779.14 509H1748.88ZM1785.32 385.705C1780.82 385.705 1777.1 384.213 1774.17 381.23C1771.28 378.2 1770.09 374.601 1770.61 370.435C1771.14 366.173 1773.17 362.575 1776.72 359.639C1780.27 356.656 1784.3 355.165 1788.8 355.165C1793.29 355.165 1796.96 356.656 1799.8 359.639C1802.65 362.575 1803.83 366.173 1803.36 370.435C1802.88 374.601 1800.87 378.2 1797.32 381.23C1793.82 384.213 1789.81 385.705 1785.32 385.705ZM1844.28 445.932L1833.77 509H1803.59L1821.77 399.909H1850.53L1847.41 419.156H1848.62C1852.07 412.764 1856.95 407.722 1863.25 404.028C1869.59 400.335 1876.81 398.489 1884.91 398.489C1892.48 398.489 1898.8 400.146 1903.87 403.46C1908.98 406.775 1912.58 411.486 1914.67 417.594C1916.8 423.702 1917.15 431.017 1915.73 439.54L1904.08 509H1873.83L1884.55 444.938C1885.64 438.261 1884.79 433.053 1882 429.312C1879.25 425.525 1874.82 423.631 1868.71 423.631C1864.64 423.631 1860.9 424.507 1857.49 426.259C1854.08 428.01 1851.22 430.567 1848.9 433.929C1846.63 437.243 1845.09 441.244 1844.28 445.932ZM1970.12 552.182C1960.27 552.182 1952.05 550.832 1945.47 548.134C1938.94 545.482 1933.97 541.86 1930.56 537.267C1927.2 532.674 1925.35 527.513 1925.02 521.784L1953.71 518.02C1954.23 520.245 1955.23 522.305 1956.69 524.199C1958.21 526.093 1960.36 527.608 1963.16 528.744C1966 529.881 1969.67 530.449 1974.17 530.449C1980.75 530.449 1986.48 528.839 1991.35 525.619C1996.23 522.447 1999.24 517.12 2000.37 509.639L2003.64 489.682H2002.36C2000.56 492.712 1998.1 495.577 1994.98 498.276C1991.9 500.974 1988.13 503.176 1983.68 504.881C1979.28 506.585 1974.19 507.438 1968.41 507.438C1960.17 507.438 1953.02 505.544 1946.96 501.756C1940.95 497.92 1936.59 492.073 1933.9 484.213C1931.24 476.306 1930.91 466.315 1932.9 454.241C1934.98 441.884 1938.73 431.562 1944.12 423.276C1949.52 414.99 1955.91 408.787 1963.3 404.668C1970.69 400.548 1978.38 398.489 1986.38 398.489C1992.49 398.489 1997.41 399.53 2001.15 401.614C2004.94 403.65 2007.85 406.206 2009.89 409.284C2011.93 412.314 2013.37 415.297 2014.22 418.233H2015.43L2018.41 399.909H2048.46L2030.13 510.065C2028.66 519.393 2025.14 527.158 2019.55 533.361C2014.01 539.611 2006.98 544.298 1998.46 547.423C1989.93 550.596 1980.49 552.182 1970.12 552.182ZM1981.48 484.71C1986.31 484.71 1990.64 483.503 1994.48 481.088C1998.36 478.626 2001.6 475.122 2004.21 470.577C2006.81 465.984 2008.64 460.491 2009.68 454.099C2010.72 447.707 2010.69 442.168 2009.61 437.48C2008.56 432.745 2006.53 429.076 2003.5 426.472C2000.51 423.867 1996.58 422.565 1991.71 422.565C1986.69 422.565 1982.29 423.915 1978.5 426.614C1974.71 429.265 1971.56 432.958 1969.05 437.693C1966.59 442.428 1964.86 447.897 1963.87 454.099C1962.83 460.397 1962.78 465.842 1963.73 470.435C1964.72 474.98 1966.68 478.508 1969.62 481.017C1972.56 483.479 1976.51 484.71 1981.48 484.71ZM2122.16 509L2110.65 399.909H2141.26L2145.95 473.205H2146.95L2176.78 399.909H2206.82L2212.5 472.778H2213.42L2242.26 399.909H2272.8L2225 509H2192.97L2185.58 440.392H2184.23L2154.12 509H2122.16ZM2270.76 509L2288.94 399.909H2319.19L2301.01 509H2270.76ZM2307.19 385.705C2302.69 385.705 2298.98 384.213 2296.04 381.23C2293.15 378.2 2291.97 374.601 2292.49 370.435C2293.01 366.173 2295.05 362.575 2298.6 359.639C2302.15 356.656 2306.17 355.165 2310.67 355.165C2315.17 355.165 2318.84 356.656 2321.68 359.639C2324.52 362.575 2325.7 366.173 2325.23 370.435C2324.76 374.601 2322.75 378.2 2319.19 381.23C2315.69 384.213 2311.69 385.705 2307.19 385.705ZM2401.46 399.909L2397.69 422.636H2331.92L2335.76 399.909H2401.46ZM2354.94 373.773H2385.19L2368.29 475.477C2367.81 478.271 2367.89 480.449 2368.5 482.011C2369.12 483.527 2370.13 484.592 2371.56 485.207C2373.02 485.823 2374.78 486.131 2376.81 486.131C2378.23 486.131 2379.68 486.012 2381.14 485.776C2382.61 485.491 2383.72 485.278 2384.48 485.136L2385.62 507.651C2383.91 508.171 2381.62 508.74 2378.73 509.355C2375.89 509.971 2372.53 510.349 2368.64 510.491C2361.26 510.776 2355.01 509.805 2349.89 507.58C2344.78 505.307 2341.11 501.827 2338.88 497.139C2336.66 492.452 2336.19 486.557 2337.46 479.455L2354.94 373.773ZM2446.24 445.932L2435.72 509H2405.54L2429.69 363.545H2459.02L2449.93 419.156H2451.14C2454.64 412.717 2459.45 407.674 2465.55 404.028C2471.66 400.335 2478.88 398.489 2487.22 398.489C2494.79 398.489 2501.11 400.146 2506.18 403.46C2511.29 406.727 2514.91 411.438 2517.05 417.594C2519.18 423.702 2519.53 431.017 2518.11 439.54L2506.46 509H2476.28L2486.93 444.938C2488.02 438.214 2487.14 432.982 2484.3 429.241C2481.51 425.501 2477.06 423.631 2470.95 423.631C2466.83 423.631 2463.04 424.507 2459.59 426.259C2456.13 428.01 2453.22 430.567 2450.85 433.929C2448.53 437.243 2446.99 441.244 2446.24 445.932ZM2617.33 445.932L2606.82 509H2576.63L2594.82 399.909H2623.58L2620.45 419.156H2621.66C2625.12 412.764 2630 407.722 2636.29 404.028C2642.64 400.335 2649.86 398.489 2657.95 398.489C2665.53 398.489 2671.85 400.146 2676.92 403.46C2682.03 406.775 2685.63 411.486 2687.71 417.594C2689.84 423.702 2690.2 431.017 2688.78 439.54L2677.13 509H2646.88L2657.6 444.938C2658.69 438.261 2657.84 433.053 2655.04 429.312C2652.3 425.525 2647.87 423.631 2641.76 423.631C2637.69 423.631 2633.95 424.507 2630.54 426.259C2627.13 428.01 2624.27 430.567 2621.95 433.929C2619.67 437.243 2618.13 441.244 2617.33 445.932ZM2778.53 462.551L2788.97 399.909H2819.23L2801.05 509H2772L2775.27 489.185H2774.13C2770.77 495.577 2765.87 500.714 2759.43 504.597C2752.99 508.479 2745.67 510.42 2737.48 510.42C2730.19 510.42 2724.04 508.763 2719.02 505.449C2714.04 502.134 2710.52 497.423 2708.43 491.315C2706.35 485.207 2706 477.892 2707.37 469.369L2719.02 399.909H2749.27L2738.62 463.972C2737.62 470.411 2738.52 475.501 2741.32 479.241C2744.11 482.982 2748.37 484.852 2754.1 484.852C2757.75 484.852 2761.27 484.024 2764.68 482.366C2768.14 480.662 2771.12 478.152 2773.63 474.838C2776.14 471.524 2777.78 467.428 2778.53 462.551ZM2825.46 509L2843.64 399.909H2872.41L2869.28 419.156H2870.49C2873.8 412.764 2878.42 407.722 2884.34 404.028C2890.31 400.335 2897.01 398.489 2904.44 398.489C2911.83 398.489 2917.84 400.359 2922.48 404.099C2927.17 407.793 2929.87 412.812 2930.58 419.156H2931.71C2934.93 412.906 2939.78 407.911 2946.27 404.17C2952.76 400.383 2960 398.489 2968 398.489C2978.09 398.489 2985.81 401.732 2991.16 408.219C2996.51 414.705 2998.19 423.844 2996.2 435.634L2983.98 509H2953.73L2965.09 441.599C2965.99 435.491 2965.09 430.946 2962.39 427.963C2959.69 424.933 2955.93 423.418 2951.1 423.418C2945.61 423.418 2941.04 425.17 2937.39 428.673C2933.75 432.13 2931.5 436.699 2930.65 442.381L2919.35 509H2890.02L2901.53 440.96C2902.33 435.562 2901.46 431.301 2898.9 428.176C2896.39 425.004 2892.63 423.418 2887.61 423.418C2884.29 423.418 2881.14 424.27 2878.16 425.974C2875.22 427.632 2872.74 429.975 2870.7 433.006C2868.67 435.989 2867.34 439.492 2866.73 443.517L2855.65 509H2825.46ZM3008.24 509L3032.39 363.545H3062.64L3053.69 418.233H3054.55C3056.34 415.297 3058.76 412.314 3061.79 409.284C3064.87 406.206 3068.63 403.65 3073.08 401.614C3077.53 399.53 3082.81 398.489 3088.92 398.489C3096.88 398.489 3103.86 400.572 3109.87 404.739C3115.89 408.858 3120.22 415.084 3122.87 423.418C3125.52 431.704 3125.8 442.097 3123.72 454.597C3121.73 466.765 3118.06 477.04 3112.71 485.42C3107.41 493.754 3101.04 500.075 3093.61 504.384C3086.22 508.645 3078.39 510.776 3070.1 510.776C3064.23 510.776 3059.4 509.805 3055.61 507.864C3051.87 505.922 3048.96 503.484 3046.88 500.548C3044.79 497.565 3043.3 494.559 3042.4 491.528H3040.91L3038.07 509H3008.24ZM3046.95 454.455C3045.9 460.941 3045.88 466.599 3046.88 471.429C3047.92 476.259 3049.91 480.023 3052.84 482.722C3055.82 485.373 3059.73 486.699 3064.56 486.699C3069.53 486.699 3073.93 485.349 3077.77 482.651C3081.65 479.904 3084.87 476.116 3087.43 471.287C3089.99 466.41 3091.79 460.799 3092.83 454.455C3093.82 448.157 3093.84 442.617 3092.9 437.835C3091.95 433.053 3090.01 429.312 3087.07 426.614C3084.14 423.915 3080.16 422.565 3075.14 422.565C3070.27 422.565 3065.89 423.867 3062 426.472C3058.17 429.076 3054.95 432.769 3052.34 437.551C3049.79 442.333 3047.99 447.968 3046.95 454.455ZM3184.25 511.131C3173.08 511.131 3163.82 508.858 3156.48 504.312C3149.14 499.72 3143.98 493.233 3141 484.852C3138.06 476.424 3137.57 466.457 3139.51 454.952C3141.4 443.73 3145.21 433.882 3150.94 425.406C3156.72 416.931 3163.96 410.326 3172.67 405.591C3181.39 400.856 3191.09 398.489 3201.79 398.489C3208.99 398.489 3215.5 399.649 3221.32 401.969C3227.2 404.241 3232.07 407.698 3235.96 412.338C3239.84 416.931 3242.49 422.684 3243.91 429.597C3245.38 436.509 3245.35 444.606 3243.84 453.886L3242.49 462.196H3150.44L3153.36 443.446H3216.99C3217.7 439.09 3217.42 435.231 3216.14 431.869C3214.86 428.508 3212.73 425.88 3209.75 423.986C3206.76 422.045 3203.1 421.074 3198.74 421.074C3194.29 421.074 3190.12 422.163 3186.24 424.341C3182.36 426.519 3179.09 429.384 3176.44 432.935C3173.83 436.438 3172.15 440.25 3171.4 444.369L3168.06 462.977C3167.11 468.706 3167.3 473.465 3168.63 477.253C3170 481.041 3172.37 483.882 3175.73 485.776C3179.09 487.622 3183.35 488.545 3188.51 488.545C3191.87 488.545 3195.02 488.072 3197.96 487.125C3200.94 486.178 3203.59 484.781 3205.91 482.935C3208.23 481.041 3210.13 478.697 3211.59 475.903L3239.22 477.75C3236.67 484.473 3232.78 490.345 3227.57 495.364C3222.37 500.335 3216.09 504.218 3208.75 507.011C3201.46 509.758 3193.29 511.131 3184.25 511.131ZM3254.55 509L3272.73 399.909H3302.06L3298.86 418.943H3300C3303.12 412.172 3307.32 407.059 3312.57 403.602C3317.87 400.098 3323.58 398.347 3329.69 398.347C3331.2 398.347 3332.79 398.441 3334.45 398.631C3336.15 398.773 3337.67 399.009 3338.99 399.341L3334.45 426.259C3333.12 425.785 3331.23 425.406 3328.76 425.122C3326.35 424.791 3324.05 424.625 3321.88 424.625C3317.47 424.625 3313.38 425.596 3309.59 427.537C3305.8 429.431 3302.6 432.082 3300 435.491C3297.44 438.901 3295.76 442.83 3294.96 447.281L3284.8 509H3254.55ZM3440 431.017L3412.52 432.722C3412.38 430.307 3411.71 428.152 3410.53 426.259C3409.39 424.317 3407.71 422.778 3405.49 421.642C3403.31 420.506 3400.56 419.938 3397.25 419.938C3392.28 419.938 3387.85 421.074 3383.97 423.347C3380.08 425.619 3377.88 428.531 3377.36 432.082C3376.94 434.355 3377.53 436.273 3379.14 437.835C3380.75 439.398 3383.99 440.723 3388.87 441.812L3408.04 445.79C3418.27 447.968 3425.66 451.59 3430.2 456.656C3434.8 461.723 3436.43 468.351 3435.1 476.543C3433.92 483.503 3430.87 489.587 3425.94 494.795C3421.02 499.956 3414.77 503.981 3407.19 506.869C3399.62 509.71 3391.21 511.131 3381.98 511.131C3367.16 511.131 3355.89 508.1 3348.17 502.04C3340.45 495.979 3336.74 487.764 3337.02 477.395L3366.57 475.832C3366.8 480.283 3368.37 483.645 3371.25 485.918C3374.14 488.143 3378.1 489.279 3383.11 489.327C3388.75 489.421 3393.53 488.261 3397.46 485.847C3401.44 483.384 3403.69 480.402 3404.21 476.898C3404.59 474.436 3403.88 472.447 3402.08 470.932C3400.33 469.417 3397.11 468.162 3392.42 467.168L3374.24 463.403C3363.91 461.273 3356.5 457.461 3352.01 451.969C3347.51 446.476 3345.97 439.492 3347.39 431.017C3348.53 424.246 3351.34 418.446 3355.84 413.616C3360.39 408.74 3366.23 404.999 3373.38 402.395C3380.58 399.791 3388.7 398.489 3397.75 398.489C3411.9 398.489 3422.56 401.401 3429.71 407.224C3436.9 413.048 3440.33 420.979 3440 431.017ZM3494.69 509L3498.46 486.841L3558.11 438.901C3563.23 434.639 3567.56 430.804 3571.11 427.395C3574.71 423.986 3577.55 420.648 3579.63 417.381C3581.76 414.066 3583.16 410.491 3583.82 406.656C3584.53 402.395 3584.18 398.725 3582.76 395.648C3581.39 392.523 3579.16 390.132 3576.08 388.474C3573.05 386.77 3569.41 385.918 3565.15 385.918C3560.69 385.918 3556.65 386.817 3553 388.616C3549.35 390.416 3546.32 392.996 3543.91 396.358C3541.5 399.72 3539.89 403.721 3539.08 408.361H3509.89C3511.5 398.844 3515.07 390.581 3520.61 383.574C3526.15 376.566 3533.11 371.145 3541.5 367.31C3549.88 363.474 3559.16 361.557 3569.34 361.557C3579.75 361.557 3588.51 363.403 3595.61 367.097C3602.76 370.742 3607.95 375.809 3611.17 382.295C3614.39 388.782 3615.29 396.216 3613.87 404.597C3612.92 410.136 3610.91 415.581 3607.83 420.932C3604.75 426.235 3599.92 432.153 3593.34 438.688C3586.76 445.174 3577.74 452.963 3566.28 462.054L3541.64 482.864L3541.42 483.858H3602.57L3598.38 509H3494.69ZM3698.06 511.06C3691.15 511.06 3685.16 509.852 3680.1 507.438C3675.08 504.975 3671.38 501.33 3669.02 496.5C3666.65 491.67 3666.06 485.681 3667.24 478.531C3668.28 472.471 3670.25 467.404 3673.14 463.332C3676.07 459.213 3679.65 455.899 3683.86 453.389C3688.07 450.88 3692.74 448.962 3697.85 447.636C3703.01 446.311 3708.34 445.411 3713.83 444.938C3720.18 444.275 3725.34 443.635 3729.31 443.02C3733.34 442.404 3736.35 441.528 3738.33 440.392C3740.32 439.208 3741.53 437.456 3741.96 435.136V434.71C3742.67 430.259 3741.84 426.803 3739.47 424.341C3737.15 421.831 3733.43 420.577 3728.32 420.577C3722.92 420.577 3718.33 421.76 3714.54 424.128C3710.8 426.495 3708.13 429.502 3706.52 433.148L3678.96 430.875C3681.42 424.246 3685.14 418.517 3690.11 413.688C3695.13 408.811 3701.17 405.07 3708.22 402.466C3715.28 399.814 3723.18 398.489 3731.94 398.489C3738 398.489 3743.66 399.199 3748.92 400.619C3754.22 402.04 3758.79 404.241 3762.62 407.224C3766.51 410.207 3769.3 414.043 3771 418.73C3772.76 423.37 3773.11 428.934 3772.07 435.42L3759.78 509H3731.09L3733.65 493.872H3732.79C3730.47 497.281 3727.63 500.288 3724.27 502.892C3720.91 505.449 3717.05 507.461 3712.7 508.929C3708.34 510.349 3703.46 511.06 3698.06 511.06ZM3710.21 490.179C3714.61 490.179 3718.66 489.303 3722.35 487.551C3726.09 485.752 3729.17 483.337 3731.59 480.307C3734.05 477.277 3735.61 473.844 3736.27 470.009L3738.12 458.432C3737.17 459.047 3735.8 459.592 3734 460.065C3732.25 460.539 3730.33 460.989 3728.25 461.415C3726.21 461.794 3724.15 462.149 3722.07 462.48C3719.99 462.764 3718.12 463.048 3716.46 463.332C3712.81 463.853 3709.55 464.682 3706.66 465.818C3703.77 466.955 3701.43 468.493 3699.63 470.435C3697.83 472.329 3696.72 474.696 3696.29 477.537C3695.63 481.656 3696.6 484.805 3699.2 486.983C3701.85 489.114 3705.52 490.179 3710.21 490.179ZM3824.17 445.932L3813.65 509H3783.47L3801.65 399.909H3830.42L3827.29 419.156H3828.5C3831.95 412.764 3836.83 407.722 3843.13 404.028C3849.47 400.335 3856.69 398.489 3864.79 398.489C3872.37 398.489 3878.69 400.146 3883.75 403.46C3888.87 406.775 3892.47 411.486 3894.55 417.594C3896.68 423.702 3897.03 431.017 3895.61 439.54L3883.97 509H3853.71L3864.44 444.938C3865.52 438.261 3864.67 433.053 3861.88 429.312C3859.13 425.525 3854.71 423.631 3848.6 423.631C3844.53 423.631 3840.78 424.507 3837.38 426.259C3833.97 428.01 3831.1 430.567 3828.78 433.929C3826.51 437.243 3824.97 441.244 3824.17 445.932ZM3947.73 510.776C3939.39 510.776 3932.22 508.645 3926.21 504.384C3920.24 500.075 3915.98 493.754 3913.42 485.42C3910.91 477.04 3910.68 466.765 3912.71 454.597C3914.8 442.097 3918.54 431.704 3923.93 423.418C3929.33 415.084 3935.72 408.858 3943.11 404.739C3950.5 400.572 3958.19 398.489 3966.19 398.489C3972.25 398.489 3977.15 399.53 3980.89 401.614C3984.68 403.65 3987.59 406.206 3989.63 409.284C3991.67 412.314 3993.09 415.297 3993.89 418.233H3994.82L4003.98 363.545H4034.16L4010.01 509H3980.18L3983.1 491.528H3981.82C3979.92 494.559 3977.41 497.565 3974.29 500.548C3971.21 503.484 3967.47 505.922 3963.07 507.864C3958.71 509.805 3953.6 510.776 3947.73 510.776ZM3961.08 486.699C3965.91 486.699 3970.27 485.373 3974.15 482.722C3978.03 480.023 3981.3 476.259 3983.95 471.429C3986.6 466.599 3988.45 460.941 3989.49 454.455C3990.58 447.968 3990.6 442.333 3989.56 437.551C3988.52 432.769 3986.48 429.076 3983.45 426.472C3980.47 423.867 3976.52 422.565 3971.59 422.565C3966.62 422.565 3962.22 423.915 3958.38 426.614C3954.59 429.312 3951.44 433.053 3948.93 437.835C3946.47 442.617 3944.72 448.157 3943.68 454.455C3942.64 460.799 3942.57 466.41 3943.47 471.287C3944.37 476.116 3946.28 479.904 3949.22 482.651C3952.15 485.349 3956.11 486.699 3961.08 486.699ZM4168.25 363.545L4144.11 509H4113.35L4132.67 392.736H4131.82L4095.03 413.616L4099.57 386.344L4139.35 363.545H4168.25ZM4266.1 363.545L4241.96 509H4211.2L4230.52 392.736H4229.67L4192.88 413.616L4197.43 386.344L4237.2 363.545H4266.1ZM4326.31 363.545L4323.83 378.886C4323.12 383.242 4321.53 387.693 4319.07 392.239C4316.65 396.737 4313.72 400.998 4310.26 405.023C4306.81 409 4303.21 412.385 4299.47 415.179L4287.25 407.295C4290.23 403.555 4293 399.412 4295.56 394.866C4298.17 390.321 4299.96 385.042 4300.96 379.028L4303.59 363.545H4326.31ZM4362.04 363.545L4359.48 378.886C4358.82 383.242 4357.26 387.693 4354.79 392.239C4352.33 396.737 4349.37 400.998 4345.92 405.023C4342.46 409 4338.86 412.385 4335.12 415.179L4322.9 407.295C4325.89 403.555 4328.66 399.412 4331.21 394.866C4333.82 390.321 4335.64 385.042 4336.68 379.028L4339.31 363.545H4362.04Z" fill="#006CA9"/>
<path d="M3661.21 585L3687 605.172L3575.16 785H3549.37L3487 687.575L3512.79 660.751L3562.26 712.253L3661.21 585Z" fill="#6E6E6E"/>
<path d="M1250.46 685L1312.82 747.367L1275.37 784.823L1213 722.456L1150.46 785L1113 747.544L1175.54 685L1113 622.456L1150.46 585L1213 647.544L1275.54 585.177L1313 622.633L1250.46 685Z" fill="#6E6E6E"/>
<path d="M1101.07 149.361L1125.57 124.645L1208.45 207.528L1291.23 124.645L1315.84 149.361L1208.45 256.747L1101.07 149.361ZM1162.43 37.5L1197.16 37.5V222.337L1162.43 187.393V37.5ZM1219.75 37.5L1254.48 37.5V187.393L1219.75 222.337V37.5Z" fill="#6E6E6E"/>
<path d="M1101.07 149.361L1125.57 124.645L1208.45 207.528L1291.23 124.645L1315.84 149.361L1208.45 256.747L1101.07 149.361ZM1162.43 37.5L1197.16 37.5V222.337L1162.43 187.393V37.5ZM1219.75 37.5L1254.48 37.5V187.393L1219.75 222.337V37.5Z" fill="#6E6E6E"/>
<path d="M3475.07 149.361L3499.57 124.645L3582.45 207.528L3665.23 124.645L3689.84 149.361L3582.45 256.747L3475.07 149.361ZM3536.43 37.5L3571.16 37.5V222.337L3536.43 187.393V37.5ZM3593.75 37.5L3628.48 37.5V187.393L3593.75 222.337V37.5Z" fill="#6E6E6E"/>
<path d="M4296.21 585L4322 605.172L4210.16 785H4184.37L4122 687.575L4147.79 660.751L4197.26 712.253L4296.21 585Z" fill="#6E6E6E"/>
<path d="M4110.07 149.361L4134.57 124.645L4217.45 207.528L4300.23 124.645L4324.84 149.361L4217.45 256.747L4110.07 149.361ZM4171.43 37.5L4206.16 37.5V222.337L4171.43 187.393V37.5ZM4228.75 37.5L4263.48 37.5V187.393L4228.75 222.337V37.5Z" fill="#6E6E6E"/>
<path d="M3589.7 1008L3593.46 985.841L3653.12 937.901C3658.24 933.639 3662.57 929.804 3666.12 926.395C3669.72 922.986 3672.56 919.648 3674.64 916.381C3676.77 913.066 3678.17 909.491 3678.83 905.656C3679.54 901.395 3679.19 897.725 3677.77 894.648C3676.39 891.523 3674.17 889.132 3671.09 887.474C3668.06 885.77 3664.41 884.918 3660.15 884.918C3655.7 884.918 3651.65 885.817 3648.01 887.616C3644.36 889.416 3641.33 891.996 3638.92 895.358C3636.5 898.72 3634.89 902.721 3634.09 907.361H3604.9C3606.51 897.844 3610.08 889.581 3615.62 882.574C3621.16 875.566 3628.12 870.145 3636.5 866.31C3644.88 862.474 3654.16 860.557 3664.34 860.557C3674.76 860.557 3683.52 862.403 3690.62 866.097C3697.77 869.742 3702.96 874.809 3706.18 881.295C3709.4 887.782 3710.3 895.216 3708.88 903.597C3707.93 909.136 3705.92 914.581 3702.84 919.932C3699.76 925.235 3694.93 931.153 3688.35 937.688C3681.77 944.174 3672.75 951.963 3661.29 961.054L3636.64 981.864L3636.43 982.858H3697.58L3693.39 1008H3589.7ZM3809.12 985.699L3825.74 885.131H3851.24L3834.69 985.699H3809.12ZM3777.73 948.128L3782.06 922.631H3882.63L3878.3 948.128H3777.73ZM4031.62 862.545L4007.47 1008H3976.72L3996.04 891.736H3995.19L3958.4 912.616L3962.94 885.344L4002.71 862.545H4031.62ZM4129.47 862.545L4105.32 1008H4074.57L4093.89 891.736H4093.04L4056.25 912.616L4060.79 885.344L4100.57 862.545H4129.47ZM4207.21 924.335L4211.47 899.051H4309.48L4305.22 924.335H4207.21ZM4199.46 971.494L4203.51 946.21H4301.6L4297.55 971.494H4199.46ZM4455.84 862.545L4431.69 1008H4400.94L4420.26 891.736H4419.4L4382.61 912.616L4387.16 885.344L4426.93 862.545H4455.84ZM4521.3 1009.99C4510.41 1009.99 4501.04 1008.17 4493.18 1004.52C4485.32 1000.87 4479.5 995.808 4475.71 989.321C4471.97 982.834 4470.76 975.353 4472.09 966.878H4502.62C4502.15 970.382 4502.7 973.483 4504.26 976.182C4505.87 978.881 4508.26 980.964 4511.43 982.432C4514.65 983.9 4518.44 984.634 4522.8 984.634C4527.67 984.634 4532.17 983.71 4536.29 981.864C4540.41 980.017 4543.82 977.508 4546.52 974.335C4549.26 971.116 4550.94 967.493 4551.56 963.469C4552.18 959.634 4551.65 956.366 4550 953.668C4548.34 950.921 4545.69 948.814 4542.04 947.347C4538.4 945.879 4533.88 945.145 4528.48 945.145H4514.34L4518.11 922.56H4530.89C4535.63 922.56 4539.96 921.684 4543.89 919.932C4547.87 918.18 4551.16 915.741 4553.76 912.616C4556.37 909.491 4558 905.869 4558.66 901.75C4559.23 898.388 4558.97 895.453 4557.88 892.943C4556.84 890.386 4554.99 888.421 4552.34 887.048C4549.74 885.628 4546.35 884.918 4542.18 884.918C4537.97 884.918 4533.88 885.675 4529.9 887.19C4525.92 888.658 4522.56 890.765 4519.81 893.511C4517.07 896.258 4515.39 899.477 4514.77 903.17H4485.44C4486.91 894.79 4490.41 887.403 4495.95 881.011C4501.54 874.619 4508.47 869.624 4516.76 866.026C4525.09 862.38 4534.09 860.557 4543.75 860.557C4554.02 860.557 4562.69 862.545 4569.74 866.523C4576.8 870.453 4581.91 875.661 4585.08 882.148C4588.3 888.587 4589.3 895.595 4588.07 903.17C4586.69 911.504 4583.05 918.109 4577.13 922.986C4571.26 927.815 4563.94 930.94 4555.18 932.361V933.426C4564.98 934.752 4572.37 938.658 4577.34 945.145C4582.36 951.632 4584.11 959.515 4582.6 968.795C4581.32 976.845 4577.84 983.971 4572.16 990.173C4566.47 996.376 4559.25 1001.23 4550.49 1004.73C4541.73 1008.24 4532 1009.99 4521.3 1009.99Z" fill="#FA8F00"/>
</svg>
